HIERARCHY
ROOT Hips
{
	OFFSET 0.00000 0.00000 0.00000
	CHANNELS 6 Xposition Yposition Zposition Zrotation Yrotation Xrotation 
	JOINT LHipJoint
	{
		OFFSET 0 0 0
		CHANNELS 3 Zrotation Yrotation Xrotation
		JOINT LeftHip
		{
			OFFSET 1.84395 -1.68683 0.74144
			CHANNELS 3 Zrotation Yrotation Xrotation
			JOINT LeftKnee
			{
				OFFSET 2.27037 -6.23779 0.00000
				CHANNELS 3 Zrotation Yrotation Xrotation
				JOINT LeftAnkle
				{
					OFFSET 2.56918 -7.05877 0.00000
					CHANNELS 3 Zrotation Yrotation Xrotation
					JOINT LeftToe
					{
						OFFSET 0.22276 -0.61202 1.71784
						CHANNELS 3 Zrotation Yrotation Xrotation
						End Site
						{
							OFFSET 0.00000 -0.00000 0.91613
						}
					}
				}
			}
		}
	}
	JOINT RHipJoint
	{
		OFFSET 0 0 0
		CHANNELS 3 Zrotation Yrotation Xrotation
		JOINT RightHip
		{
			OFFSET -1.76833 -1.68684 0.74144
			CHANNELS 3 Zrotation Yrotation Xrotation
			JOINT RightKnee
			{
				OFFSET -2.49360 -6.85110 0.00000
				CHANNELS 3 Zrotation Yrotation Xrotation
				JOINT RightAnkle
				{
					OFFSET -2.55538 -7.02085 0.00000
					CHANNELS 3 Zrotation Yrotation Xrotation
					JOINT RightToe
					{
						OFFSET -0.21516 -0.59115 1.68050
						CHANNELS 3 Zrotation Yrotation Xrotation
						End Site
						{
							OFFSET -0.00000 -0.00000 0.89604
						}
					}
				}
			}
		}
	}
	JOINT lowerback
	{
		OFFSET 0 0 0
		CHANNELS 3 Zrotation Yrotation Xrotation
		JOINT Chest
		{
			OFFSET 0.06382 1.72312 -0.19613
			CHANNELS 3 Zrotation Yrotation Xrotation
			JOINT Chest2
			{
				OFFSET -0.00055 1.73507 0.23859
				CHANNELS 3 Zrotation Yrotation Xrotation
				JOINT lowerneck
				{
					OFFSET 0 0 0
					CHANNELS 3 Zrotation Yrotation Xrotation
					JOINT Neck
					{
						OFFSET 0.03638 1.65562 0.09633
						CHANNELS 3 Zrotation Yrotation Xrotation
						JOINT Head
						{
							OFFSET 0.06388 1.62807 -0.32386
							CHANNELS 3 Zrotation Yrotation Xrotation
							End Site
							{
								OFFSET 0.00995 1.67644 -0.12021
							}
						}
					}
				}
				JOINT LeftCollar
				{
					OFFSET 0 0 0
					CHANNELS 3 Zrotation Yrotation Xrotation
					JOINT LeftShoulder
					{
						OFFSET 3.09648 1.42991 0.28122
CHANNELS 3 Zrotation Xrotation Yrotation
						JOINT LeftElbow
						{
OFFSET 0 -5.118780 -0.000000
CHANNELS 3 Zrotation Xrotation Yrotation
							JOINT LeftWrist
							{
OFFSET 0 -3.599710 0.000000
CHANNELS 3 Zrotation Xrotation Yrotation
								JOINT lhand
								{
									OFFSET 0 0 0
CHANNELS 3 Zrotation Xrotation Yrotation
									JOINT LFingers
									{
OFFSET 0 -0.628770 0.000000
CHANNELS 3 Zrotation Xrotation Yrotation
										End Site
										{
OFFSET 0 -0.506930 0.000000
										}
									}
								}
								JOINT LThumb
								{
OFFSET 0 0.000000 0.000000
CHANNELS 3 Zrotation Xrotation Yrotation
									End Site
									{
OFFSET 0 -0.514670 0.514670
									}
								}
							}
						}
					}
				}
				JOINT RightCollar
				{
					OFFSET 0 0 0
					CHANNELS 3 Zrotation Yrotation Xrotation
					JOINT RightShoulder
					{
						OFFSET -3.33565 1.14597 0.05047
CHANNELS 3 Zrotation Xrotation Yrotation
						JOINT RightElbow
						{
OFFSET 0 -5.490200 0.000000
CHANNELS 3 Zrotation Xrotation Yrotation
							JOINT RightWrist
							{
OFFSET 0 -3.206590 -0.000000
CHANNELS 3 Zrotation Xrotation Yrotation
								JOINT rhand
								{
									OFFSET 0 0 0
CHANNELS 3 Zrotation Xrotation Yrotation
									JOINT RFingers
									{
OFFSET 0 -0.691880 0.000000
CHANNELS 3 Zrotation Xrotation Yrotation
										End Site
										{
OFFSET 0 -0.557810 0.000000
										}
									}
								}
								JOINT RThumb
								{
OFFSET 0 0.000000 0.000000
CHANNELS 3 Zrotation Xrotation Yrotation
									End Site
									{
OFFSET 0 -0.566330 0.566330
									}
								}
							}
						}
					}
				}
			}
		}
	}
}
MOTION
Frames: 5
Frame Time: 0.008333333333333333
0.595800 17.459900 9.027700 -8.648600 -5.298400 10.062400 0.000000 0.000000 0.000000 -23.193300 -43.969600 28.422600 0.058300 -1.558400 -4.286600 -0.730200 42.949900 -56.983400 1.503500 7.744600 21.941100 0.000000 0.000000 0.000000 26.753300 25.805800 4.616600 -0.006300 -0.514500 1.413900 1.048500 -20.371300 -18.389300 -0.128800 2.313400 -6.372600 5.774100 2.114000 1.235300 1.045100 3.417900 -10.891600 -2.469000 1.141900 -12.191100 -10.942800 -12.453200 -0.943500 12.435300 -18.902500 18.268100 4.178100 -9.045100 8.030300 -0.000000 0.000000 0.000000 -1.016600 10.653700 -6.352400 10.277800 -17.173000 1.556000 11.092300 33.297500 14.320400 0.000000 0.000000 0.000000 -7.125000 0.000000 0.000000 -11.145500 15.579700 -7.895400 -0.000000 0.000000 0.000000 2.845500 12.007700 1.295200 -12.995800 -21.281100 -2.451800 6.873300 39.118300 30.070300 0.000000 0.000000 0.000000 7.125000 0.000000 -0.000000 40.119100 55.276800 -11.465700
0.596470 17.462004 9.019016 -8.516547 -5.334114 10.194681 0.000000 0.000000 0.000000 -23.246027 -44.187344 28.266641 0.056571 -1.534795 -4.221712 -0.559542 42.848145 -57.248215 1.566852 7.898737 22.406954 0.000000 0.000000 0.000000 26.443171 25.745924 4.293634 -0.006597 -0.524887 1.442401 1.033628 -20.246173 -18.293644 -0.106523 2.084411 -5.739722 4.891445 0.972873 0.737554 2.165720 1.845792 -10.429217 -0.582933 0.556324 -11.526607 -11.622691 -11.532228 -3.016983 11.775367 -17.388213 19.547332 4.116992 -8.296891 8.632628 0.000000 0.000000 0.000000 -2.958122 10.592346 -3.916291 10.389645 -17.346746 1.589160 14.317999 28.327120 14.731638 0.000000 0.000000 0.000000 -7.125000 0.000000 0.000000 -8.957459 14.924663 -6.430459 0.000000 0.000000 0.000000 0.596555 10.400779 3.582931 -12.324022 -20.288567 -2.213502 6.797778 40.722640 29.800295 0.000000 0.000000 0.000000 7.125000 0.000000 0.000000 39.816656 55.079639 -11.153186
0.587327 17.474122 9.045267 -8.090153 -5.373107 10.776767 0.000000 0.000000 0.000000 -23.975039 -45.355581 28.541693 0.056075 -1.527586 -4.201637 -0.045920 43.093670 -58.736359 1.677380 8.159099 23.198370 0.000000 0.000000 0.000000 25.679040 26.069740 3.787606 -0.005294 -0.471367 1.295183 1.042779 -20.323701 -18.353166 -0.008705 -0.600568 1.650221 4.338274 1.001020 -0.613636 2.027087 1.744838 -10.497570 -0.392940 0.565250 -10.789073 -11.624080 -11.479732 -3.006196 11.758485 -17.363117 19.930378 4.114610 -8.280103 8.756250 0.000000 0.000000 0.000000 -2.866283 10.799784 -4.222977 10.153849 -16.979810 1.519527 16.874874 25.334790 14.402853 0.000000 0.000000 0.000000 -7.125000 0.000000 0.000000 -7.219012 15.039392 -5.140124 0.000000 0.000000 0.000000 0.191732 9.718032 2.767122 -11.771859 -19.461540 -2.025587 6.057595 41.643684 29.813035 0.000000 0.000000 0.000000 7.125000 0.000000 0.000000 39.158276 55.234827 -11.079295
0.590224 17.474971 9.042621 -8.010886 -5.431557 10.691565 0.000000 0.000000 0.000000 -24.148928 -45.282002 28.621374 0.055874 -1.525369 -4.195640 -0.211835 43.277773 -58.601084 1.627737 8.043158 22.845412 0.000000 0.000000 0.000000 25.591407 26.008363 3.817011 -0.005745 -0.488236 1.341665 1.005816 -20.144789 -18.454033 -0.012007 -0.708091 1.945879 4.356548 1.011615 -0.813594 1.948138 1.735371 -10.394901 -0.483969 0.559942 -10.547243 -11.458582 -11.381847 -2.839189 11.749287 -17.230376 19.777983 4.117223 -8.217848 8.639487 0.000000 0.000000 0.000000 -2.831249 10.910222 -4.430229 10.460372 -17.456441 1.610339 16.422843 26.242165 11.365232 0.000000 0.000000 0.000000 -7.125000 0.000000 0.000000 -7.509276 18.203005 -4.828897 0.000000 0.000000 0.000000 0.007001 9.342614 2.455956 -11.862663 -19.598389 -2.055969 5.552188 41.655137 29.704646 0.000000 0.000000 0.000000 7.125000 0.000000 0.000000 38.606514 55.247900 -10.898238
0.588708 17.471557 9.038695 -8.121279 -5.523306 10.505950 0.000000 0.000000 0.000000 -23.741590 -44.614739 28.274974 0.057387 -1.545386 -4.250783 -0.424578 43.073187 -57.856622 1.611956 8.006256 22.732996 0.000000 0.000000 0.000000 25.736511 25.595924 3.766746 -0.007149 -0.546414 1.501544 0.943418 -19.706158 -18.295829 -0.007430 -0.557242 1.531292 4.414918 0.951363 -1.027802 2.073373 1.642118 -10.168049 -0.372721 0.524988 -10.166241 -11.367393 -11.256123 -2.874481 11.655214 -17.017715 19.665336 4.099905 -8.119050 8.562114 0.000000 0.000000 0.000000 -3.106948 11.102251 -4.338181 10.850939 -18.059480 1.729477 15.581174 24.857616 11.081729 0.000000 0.000000 0.000000 -7.125000 0.000000 0.000000 -8.101543 18.550793 -5.154851 0.000000 0.000000 0.000000 -0.235483 8.926009 1.945997 -12.077155 -19.920282 -2.128489 5.667301 41.368734 29.517383 0.000000 0.000000 0.000000 7.125000 0.000000 0.000000 38.551976 55.076213 -10.707985
